<svg width="24" height="24" viewBox="0 0 24 24" fill="none" xmlns="http://www.w3.org/2000/svg">
<g clip-path="url(#clip0_13:21)">
<path d="M17.5 1H6.5C3.46243 1 1 3.46243 1 6.5V17.5C1 20.5376 3.46243 23 6.5 23H17.5C20.5376 23 23 20.5376 23 17.5V6.5C23 3.46243 20.5376 1 17.5 1Z" stroke="white" stroke-width="2.2" stroke-linecap="round" stroke-linejoin="round"/>
<path d="M16.3524 11.3546C16.4882 12.27 16.3318 13.205 15.9056 14.0265C15.4793 14.848 14.8049 15.5141 13.9782 15.9302C13.1515 16.3463 12.2147 16.4911 11.301 16.3441C10.3873 16.1971 9.54316 15.7657 8.88874 15.1112C8.23433 14.4568 7.80292 13.6127 7.65589 12.699C7.50886 11.7853 7.65369 10.8485 8.06978 10.0218C8.48586 9.19511 9.15202 8.52069 9.9735 8.09444C10.795 7.66819 11.7299 7.51182 12.6454 7.64757C13.5792 7.78605 14.4438 8.22118 15.1113 8.88871C15.7788 9.55624 16.2139 10.4208 16.3524 11.3546Z" stroke="white" stroke-width="2.2" stroke-linecap="round" stroke-linejoin="round"/>
<path d="M18.5941 4.76937C18.611 4.88381 18.5915 5.00068 18.5382 5.10336C18.4849 5.20605 18.4006 5.28932 18.2973 5.34133C18.1939 5.39334 18.0768 5.41144 17.9626 5.39306C17.8484 5.37468 17.7429 5.32076 17.6611 5.23896C17.5793 5.15716 17.5254 5.05164 17.507 4.93743C17.4886 4.82321 17.5067 4.70611 17.5587 4.60277C17.6107 4.49944 17.694 4.41514 17.7967 4.36186C17.8994 4.30858 18.0162 4.28903 18.1307 4.306C18.2474 4.32331 18.3555 4.3777 18.4389 4.46114C18.5223 4.54458 18.5767 4.65265 18.5941 4.76937Z" stroke="white" stroke-width="1.1" stroke-linecap="round" stroke-linejoin="round"/>
</g>
<defs>
<clipPath id="clip0_13:21">
<rect width="24" height="24" fill="white"/>
</clipPath>
</defs>
</svg>
